<?xml version="1.0" encoding="iso-8859-1"?>
<!-- Uploaded to: SVG Repo, www.svgrepo.com, Generator: SVG Repo Mixer Tools -->
<svg fill="#fff" height="800px" width="800px" version="1.1" id="Capa_1" xmlns="http://www.w3.org/2000/svg" xmlns:xlink="http://www.w3.org/1999/xlink" 
	 viewBox="0 0 470.001 470.001" xml:space="preserve">
<g >
	<path d="M459.542,337.986c13.911-18.33,13.91-43.922-0.003-62.25c14.395-18.963,13.899-45.701-1.491-64.126
		C465.981,185.739,470,163.347,470,145C470,65.047,404.954,0,325,0c-32.744,0-64.457,11.074-90,31.307
		C209.458,11.074,177.745,0,145,0C65.047,0,0,65.047,0,145c0,18.348,4.019,40.74,11.951,66.61
		c-15.389,18.425-15.885,45.159-1.493,64.122c-6.785,8.911-10.458,19.739-10.458,31.131c0,11.391,3.671,22.217,10.454,31.127
		c-6.783,8.91-10.454,19.736-10.454,31.127c0,11.49,3.735,22.405,10.632,31.359c-13.811,21.185-8.375,58.638-7.646,63.205
		c0.652,4.088,4.49,6.873,8.583,6.223c3.693-0.587,6.316-3.78,6.314-7.405c0-0.389-0.021-0.781-0.084-1.177
		c-1.556-9.836-3.33-34.982,3.601-49.464l32.294,32.294c0.175,0.175,0.36,0.341,0.552,0.499c0.083,0.068,0.171,0.127,0.256,0.191
		c0.11,0.083,0.219,0.168,0.334,0.245c0.104,0.069,0.211,0.129,0.318,0.193c0.104,0.062,0.205,0.127,0.312,0.184
		c0.11,0.059,0.223,0.108,0.335,0.161c0.109,0.052,0.217,0.106,0.329,0.153c0.11,0.046,0.223,0.082,0.335,0.122
		c0.119,0.043,0.236,0.088,0.358,0.125c0.112,0.034,0.227,0.059,0.34,0.087c0.124,0.031,0.246,0.066,0.372,0.091
		c0.131,0.026,0.263,0.041,0.394,0.06c0.111,0.016,0.219,0.037,0.331,0.048c0.246,0.024,0.493,0.037,0.74,0.037
		s0.494-0.013,0.74-0.037c0.112-0.011,0.22-0.032,0.331-0.048c0.132-0.019,0.264-0.034,0.395-0.06
		c0.126-0.025,0.248-0.059,0.371-0.091c0.114-0.029,0.228-0.054,0.341-0.088c0.122-0.037,0.239-0.082,0.358-0.125
		c0.112-0.04,0.224-0.077,0.335-0.122c0.112-0.047,0.22-0.101,0.329-0.153c0.112-0.053,0.225-0.103,0.335-0.161
		c0.106-0.057,0.207-0.122,0.31-0.183c0.107-0.064,0.215-0.124,0.319-0.194c0.114-0.077,0.222-0.162,0.332-0.244
		c0.086-0.064,0.174-0.124,0.257-0.192c0.192-0.157,0.376-0.323,0.552-0.499l32.294-32.294c6.93,14.479,5.158,39.62,3.602,49.459
		c-0.063,0.398-0.085,0.791-0.085,1.182c-0.004,3.625,2.617,6.817,6.31,7.406c0.4,0.064,0.798,0.095,1.191,0.095
		c3.621,0,6.808-2.629,7.397-6.319c0.729-4.567,6.166-42.02-7.646-63.205c6.896-8.954,10.632-19.87,10.632-31.359
		c0-11.391-3.671-22.217-10.454-31.127C114.329,329.08,118,318.253,118,306.863c0-11.394-3.673-22.223-10.46-31.135
		c12.248-16.17,13.758-38.167,4.182-55.774C171.49,200.402,218.201,151.727,235,90.778
		c16.799,60.948,63.511,109.623,123.279,129.175c-9.577,17.609-8.065,39.608,4.185,55.779
		c-13.916,18.329-13.918,43.922-0.006,62.253c-6.784,8.911-10.457,19.739-10.457,31.131c0,11.49,3.735,22.405,10.632,31.359
		c-13.812,21.185-8.375,58.638-7.646,63.205c0.589,3.69,3.775,6.319,7.397,6.319c0.393,0,0.79-0.031,1.19-0.095
		c3.693-0.589,6.314-3.782,6.31-7.406c0-0.39-0.022-0.784-0.085-1.182c-1.462-9.166-3.288-34.816,3.623-49.439l32.275,32.275
		c0.015,0.015,0.031,0.027,0.046,0.042c0.159,0.157,0.324,0.308,0.498,0.451c0.047,0.039,0.097,0.071,0.145,0.109
		c0.146,0.114,0.292,0.227,0.446,0.33c0.041,0.028,0.085,0.05,0.127,0.077c0.165,0.106,0.331,0.209,0.504,0.301
		c0.031,0.017,0.063,0.029,0.094,0.045c0.186,0.096,0.375,0.188,0.569,0.269c0.022,0.009,0.044,0.015,0.066,0.024
		c0.204,0.082,0.411,0.159,0.623,0.223c0.025,0.008,0.052,0.012,0.077,0.02c0.208,0.061,0.418,0.116,0.632,0.159
		c0.06,0.012,0.122,0.017,0.182,0.028c0.18,0.031,0.361,0.063,0.545,0.081c0.248,0.025,0.497,0.038,0.749,0.038
		s0.501-0.013,0.749-0.038c0.184-0.018,0.365-0.05,0.545-0.081c0.06-0.011,0.122-0.016,0.182-0.028
		c0.215-0.043,0.425-0.098,0.632-0.159c0.025-0.007,0.052-0.012,0.077-0.02c0.213-0.065,0.421-0.141,0.625-0.224
		c0.021-0.008,0.043-0.015,0.064-0.023c0.195-0.081,0.384-0.173,0.57-0.269c0.031-0.016,0.063-0.029,0.094-0.045
		c0.173-0.093,0.339-0.196,0.504-0.301c0.042-0.027,0.086-0.049,0.127-0.077c0.154-0.103,0.3-0.216,0.446-0.33
		c0.048-0.037,0.098-0.07,0.145-0.109c0.173-0.142,0.338-0.294,0.498-0.451c0.015-0.015,0.031-0.027,0.046-0.042l32.294-32.295
		c6.931,14.482,5.157,39.628,3.601,49.464c-0.063,0.396-0.084,0.788-0.085,1.177c-0.004,3.624,2.617,6.817,6.31,7.406
		c0.4,0.064,0.798,0.095,1.19,0.095c3.621,0,6.809-2.629,7.397-6.319c0.729-4.567,6.165-42.02-7.646-63.205
		c6.896-8.954,10.632-19.87,10.632-31.359C470,357.725,466.327,346.897,459.542,337.986z M377.698,394.941
		c-6.897-6.897-10.696-16.068-10.696-25.824c0-7.204,2.078-14.086,5.939-19.973l30.56,30.56v41.041
		C403.5,420.745,377.707,394.951,377.698,394.941z M373.258,224.172c13.969,3.313,28.534,5.068,43.502,5.068
		c4.143,0,7.5-3.358,7.5-7.5s-3.357-7.5-7.5-7.5c-94.617,0-171.775-76.132-173.461-170.353C266.37,25.232,295.206,15,325,15
		c71.683,0,130,58.318,130,130c0,17.775-4.22,40.05-12.541,66.208c-0.85,2.671-0.139,5.594,1.845,7.577
		c14.238,14.238,14.239,37.405,0.002,51.645c-0.003,0.003-25.806,25.806-25.806,25.806v-44.148c0-4.142-3.357-7.5-7.5-7.5
		s-7.5,3.358-7.5,7.5v44.148l-25.798-25.798C365.237,257.972,363.62,238.43,373.258,224.172z M53.241,214.241
		c-4.142,0-7.5,3.358-7.5,7.5s3.358,7.5,7.5,7.5c14.968,0,29.532-1.756,43.502-5.068c9.638,14.257,8.021,33.8-4.439,46.26
		L66.5,296.236v-44.148c0-4.142-3.358-7.5-7.5-7.5s-7.5,3.358-7.5,7.5v44.148l-25.803-25.803C18.8,263.535,15,254.364,15,244.608
		s3.799-18.926,10.696-25.824c1.982-1.982,2.694-4.905,1.844-7.577C19.22,185.051,15,162.776,15,145C15,73.318,73.318,15,145,15
		c29.795,0,58.63,10.232,81.701,28.887C225.016,138.109,147.858,214.241,53.241,214.241z M92.304,394.941
		c-0.005,0.005-25.803,25.804-25.803,25.804v-41.042l30.56-30.56c3.862,5.887,5.94,12.77,5.94,19.974
		C103,378.872,99.201,388.043,92.304,394.941z M25.697,394.941c-6.897-6.897-10.696-16.069-10.696-25.824
		c0-7.204,2.078-14.087,5.94-19.974l30.56,30.56v41.042C51.5,420.745,25.702,394.946,25.697,394.941z M20.941,286.889l30.56,30.56
		v41.042l-25.803-25.803c-6.897-6.898-10.696-16.069-10.696-25.824C15.001,299.659,17.079,292.776,20.941,286.889z M92.304,332.687
		L66.5,358.49v-41.042l30.56-30.56c3.862,5.887,5.94,12.77,5.94,19.974C103,316.618,99.201,325.789,92.304,332.687z
		 M444.307,332.684c-0.003,0.003-25.806,25.806-25.806,25.806v-41.041l30.556-30.557
		C458.306,301.048,456.725,320.261,444.307,332.684z M372.944,286.893l30.557,30.556v41.041l-25.798-25.798
		C365.276,320.265,363.694,301.05,372.944,286.893z M418.5,379.704l30.556-30.557c9.251,14.157,7.668,33.372-4.753,45.794
		L418.5,420.744V379.704z" />
</g>
</svg>