<?xml version="1.0" encoding="iso-8859-1"?>
<!-- Uploaded to: SVG Repo, www.svgrepo.com, Generator: SVG Repo Mixer Tools -->
<svg fill="#000000" height="800px" width="800px" version="1.1" id="Layer_1" xmlns="http://www.w3.org/2000/svg" xmlns:xlink="http://www.w3.org/1999/xlink" 
	 viewBox="0 0 512 512" xml:space="preserve">
<g>
	<g>
		<g>
			<path d="M300.138,163.066h-88.276c-9.737,0-17.655,7.918-17.655,17.655s7.918,17.655,17.655,17.655h88.276
				c9.737,0,17.655-7.918,17.655-17.655S309.875,163.066,300.138,163.066z"/>
			<path d="M461.63,279.625c-14.336-9.366-31.559-16.234-52.657-20.992c-9.71-2.18-17.726-6.815-23.799-13.753
				c-14.468-16.525-13.444-43.114,2.322-60.531c65.139-71.945,63.726-111.572,62.702-119.111
				c-0.424-21.398-19.509-40.13-20.233-40.828c-5.42-5.42-15.06-8.854-29.449-10.496c-17.796-2.057-36.122,3.151-50.158,14.257
				C308.71,61.081,261.182,65.548,256,65.945c-5.182-0.397-52.71-4.864-94.358-37.773c-14.045-11.105-32.309-16.313-50.158-14.257
				c-14.389,1.642-24.029,5.076-29.343,10.399c-0.83,0.794-19.915,19.527-20.339,40.925c-1.024,7.539-2.436,47.166,62.702,119.111
				c15.766,17.417,16.79,44.006,2.322,60.531c-6.073,6.939-14.089,11.573-23.799,13.753c-21.098,4.758-38.321,11.626-52.657,20.992
				C17.417,301.173,0,324.964,0,348.445v52.966c0,1.951,0.539,48.331,46.724,94.517c2.534,2.534,6.321,3.302,9.622,1.916
				c3.302-1.359,5.447-4.59,5.447-8.157V374.928c0-0.38-0.053-0.927-0.097-1.298c-0.026-0.221-0.627-5.226,2.993-9.357
				c4.025-4.582,12.182-7,24.143-7.018c0.088,0.018,10.399-0.538,19.986,2.198c4.502,1.298,8.201,4.308,10.408,8.492
				c2.286,4.317,2.701,9.278,1.165,13.956c-6.815,20.736-19.059,73.304,14.045,113.408c2.225,2.684,5.817,3.796,9.198,2.878
				c3.354-0.953,5.853-3.796,6.347-7.247c5.42-37.853,25.521-116.012,53.892-116.056c0.079-0.009,7.486-0.574,12.191,3.752
				c2.948,2.701,4.493,7.133,4.617,13.162c-1.898,10.24-11.679,69.164,9.366,94.667c6.506,7.883,15.475,12.05,25.953,12.05
				s19.447-4.167,25.953-12.05c21.045-25.503,11.264-84.427,9.366-94.667c0.124-6.029,1.668-10.461,4.617-13.162
				c4.696-4.317,12.12-3.761,12.111-3.761c0.309,0.035,0.618,0.053,0.918,0.053c27.533,0,47.634,78.159,53.054,116.012
				c0.494,3.452,2.993,6.294,6.347,7.247c3.399,0.918,6.983-0.194,9.198-2.878c32.653-39.548,21.018-91.489,14.504-111.978
				c-1.651-5.199-1.059-10.867,1.615-15.572c2.622-4.59,6.877-7.768,11.988-8.942c8.854-2.03,17.452-1.571,18.052-1.545
				c11.564,0,19.774,2.428,23.755,7.027c3.531,4.07,2.878,8.995,2.869,9.057c-0.097,0.521-0.141,1.042-0.141,1.571v114.759
				c0,3.566,2.145,6.797,5.447,8.157c1.095,0.459,2.242,0.671,3.381,0.671c2.295,0,4.555-0.9,6.241-2.586
				C511.461,449.742,512,403.362,512,401.411v-52.966C512,324.964,494.583,301.173,461.63,279.625z M300.138,216.031h-88.276
				c-19.474,0-35.31-15.837-35.31-35.31s15.837-35.31,35.31-35.31h88.276c19.474,0,35.31,15.837,35.31,35.31
				S319.612,216.031,300.138,216.031z"/>
		</g>
	</g>
</g>
</svg>